<?xml version="1.0" encoding="UTF-8"?><svg id="Layer_1" xmlns="http://www.w3.org/2000/svg" viewBox="0 0 80 80"><defs><style>.cls-1{fill:#69e244;}.cls-2{fill:#0c1d29;}.cls-3{fill:#334552;}.cls-4{fill:#263742;}.cls-5{fill:#3c8725;}</style></defs><rect class="cls-4" x="5.65" y="14.09" width="68.71" height="65.85" rx="2.55" ry="2.55"/><rect class="cls-3" x="20.91" y="33.28" width="44.23" height="3.95" rx="1.98" ry="1.98"/><rect class="cls-1" x="8.62" y="33.28" width="10" height="3.95" rx="1.98" ry="1.98"/><rect class="cls-3" x="8.62" y="40.76" width="30.49" height="3.95" rx="1.98" ry="1.98"/><rect class="cls-3" x="60.24" y="40.76" width="11.15" height="3.95" rx="1.98" ry="1.98"/><circle class="cls-3" cx="69.41" cy="35.26" r="1.98"/><path class="cls-2" d="M16.76,24.21c-1.47-.85-2.45-2.22-2.83-3.74-.1-.37-.16-.74-.18-1.12-.08-1.16.18-2.35.8-3.42.99-1.72,2.71-2.77,4.53-2.98.29-.04.58-.05.87-.04.98.02,1.97.29,2.88.81s1.63,1.25,2.14,2.09c.15.25.28.5.4.78.73,1.69.67,3.7-.32,5.42-.62,1.08-1.53,1.89-2.57,2.4-.34.17-.69.3-1.06.4-1.51.42-3.18.26-4.65-.59Z"/><path class="cls-3" d="M14.42,17c-.22-1.68.27-3.29,1.24-4.52.23-.3.49-.58.78-.82.87-.76,1.97-1.28,3.21-1.44,1.97-.26,3.84.46,5.13,1.78.21.21.4.43.56.67.58.79.97,1.74,1.11,2.78s0,2.05-.36,2.97c-.1.27-.23.53-.37.79-.9,1.61-2.53,2.78-4.5,3.04-1.23.16-2.43-.06-3.47-.58-.34-.17-.66-.37-.96-.6-1.25-.94-2.14-2.37-2.36-4.05Z"/><path class="cls-5" d="M19.38,14.31l-.16.02.11.85.49-.06c.1.23.18.47.24.72l-.47.06.11.85.47-.06c0,.26-.01.51-.05.76l-.49.06.11.85.16-.02c-.5,1.34-1.66,2.4-3.12,2.72.3.23.62.43.96.6,1.52-.6,2.67-1.89,3.1-3.44l.71-.09-.11-.85-.44.06c.02-.25.03-.5.02-.75l.51-.07-.11-.85-.51.07c-.05-.25-.12-.49-.21-.73l.44-.06-.11-.85-.71.09c-.82-1.39-2.25-2.34-3.88-2.54-.29.25-.55.52-.78.82,1.5-.06,2.89.66,3.72,1.83Z"/><path class="cls-5" d="M23.31,15.41l.11.85.43-.06c.05.25.13.49.21.72l-.37.05.11.85.64-.08c.33.56.77,1.06,1.27,1.45.15-.26.27-.52.37-.79-.27-.23-.51-.49-.71-.78l.24-.03-.11-.85-.58.07c-.1-.23-.18-.47-.24-.72l.54-.07-.11-.85-.54.07c0-.26.01-.51.05-.76l.58-.07-.11-.85-.24.03c.12-.33.29-.65.49-.94-.17-.24-.36-.46-.56-.67-.39.51-.68,1.1-.86,1.73l-.64.08.11.85.37-.05c-.02.25-.03.5-.02.76l-.43.06Z"/><rect class="cls-3" x="8.62" y="26.42" width="62.77" height="1.13" rx=".56" ry=".56"/><path class="cls-2" d="M68.1,21.31c0,8.42-6.82,15.24-15.24,15.24s-15.24-6.82-15.24-15.24c0-5.27,2.68-9.92,6.74-12.65.25-.17.5-.33.75-.47,2.27-1.34,4.92-2.11,7.74-2.11,8.42,0,15.24,6.82,15.24,15.24Z"/><path class="cls-4" d="M38.98,27.55h27.78c.17-.37.31-.75.45-1.13h-28.68c.14.38.28.76.45,1.13Z"/><path class="cls-3" d="M67.12,18.95c-1.47,8.8-9.79,14.73-18.59,13.26s-14.73-9.79-13.26-18.59c.92-5.51,4.53-9.9,9.26-12.04.29-.13.58-.25.87-.36,2.61-1.01,5.51-1.35,8.46-.86,8.8,1.47,14.73,9.79,13.26,18.59Z"/><path class="cls-2" d="M51.02,29.98l-3.17-4.31,4.86-3.88-6.76-.33-1.69-6.46-2.1,6.2-4.53-1.29,3.68,4.77-.25,4.17c.07.05.13.11.19.16l3.47-1.78c3.53,2.78,6.3,2.76,6.3,2.76h0Z"/><path class="cls-5" d="M54.06,10.83l-3.45-5.16,4.05-2.89s-3.53-.22-6.61.81l-2.94-1.71-.87,3.27s-2.39,1.25-5.14,3.99l4.52-.26.63,6.12,3.64-5.84,6.17,1.67h0Z"/><path class="cls-2" d="M54.66,2.78l5.91.99,2.23,5.11.97-2.72c-1.63-2.03-3.75-3.66-6.22-4.72v.23s-2.89,1.11-2.89,1.11h0Z"/><path class="cls-2" d="M62.97,19.73l3.59-1.74-2.8-2.38s-.07-4.68-.96-6.71c0,0-1.55,3.84-2.64,4.62l-6.11-2.67,3.76,5.85-5.12,5.11,6.51-1.36,1.58,5.86s1.77-3.27,2.16-6.57h0Z"/><path class="cls-2" d="M60.69,29.34h-.07s.17-3.05.17-3.05c-.92,2.02-4.5,4.58-4.5,4.58l-5.29-.88,2.3,2.31c2.7-.36,5.23-1.39,7.37-2.95h0Z"/><path class="cls-1" d="M35.57,14.35s1.92-4.47,3.54-5.21l-2.83,1.38.02-.47c-.47,1.13-.83,2.32-1.04,3.58-.28,1.66-.29,3.31-.07,4.89l2.43,1.4s-1.92-3.47-2.05-5.56h0Z"/><path class="cls-4" d="M52.87,36.55c3.55,0,6.81-1.23,9.4-3.26h-18.81c2.59,2.04,5.85,3.26,9.4,3.26Z"/><rect class="cls-3" x="20.91" y="52.91" width="44.23" height="3.95" rx="1.98" ry="1.98"/><rect class="cls-1" x="8.62" y="52.91" width="10" height="3.95" rx="1.98" ry="1.98"/><rect class="cls-3" x="8.62" y="60.39" width="30.49" height="3.95" rx="1.98" ry="1.98"/><rect class="cls-3" x="60.24" y="60.39" width="11.15" height="3.95" rx="1.98" ry="1.98"/><circle class="cls-3" cx="69.41" cy="54.88" r="1.98"/><circle class="cls-2" cx="9.18" cy="48.81" r=".56"/><circle class="cls-2" cx="11.55" cy="48.81" r=".56"/><circle class="cls-2" cx="13.92" cy="48.81" r=".56"/><circle class="cls-2" cx="16.29" cy="48.81" r=".56"/><circle class="cls-2" cx="18.66" cy="48.81" r=".56"/><circle class="cls-2" cx="21.03" cy="48.81" r=".56"/><circle class="cls-2" cx="23.41" cy="48.81" r=".56"/><circle class="cls-2" cx="25.78" cy="48.81" r=".56"/><circle class="cls-2" cx="28.15" cy="48.81" r=".56"/><circle class="cls-2" cx="30.52" cy="48.81" r=".56"/><circle class="cls-2" cx="32.89" cy="48.81" r=".56"/><circle class="cls-2" cx="35.26" cy="48.81" r=".56"/><circle class="cls-2" cx="37.63" cy="48.81" r=".56"/><circle class="cls-2" cx="40" cy="48.81" r=".56"/><circle class="cls-2" cx="42.37" cy="48.81" r=".56"/><circle class="cls-2" cx="44.74" cy="48.81" r=".56"/><circle class="cls-2" cx="47.11" cy="48.81" r=".56"/><circle class="cls-2" cx="49.48" cy="48.81" r=".56"/><circle class="cls-2" cx="51.85" cy="48.81" r=".56"/><circle class="cls-2" cx="54.22" cy="48.81" r=".56"/><circle class="cls-2" cx="56.59" cy="48.81" r=".56"/><circle class="cls-2" cx="58.97" cy="48.81" r=".56"/><circle class="cls-2" cx="61.34" cy="48.81" r=".56"/><circle class="cls-2" cx="63.71" cy="48.81" r=".56"/><circle class="cls-2" cx="66.08" cy="48.81" r=".56"/><circle class="cls-2" cx="68.45" cy="48.81" r=".56"/><circle class="cls-2" cx="70.82" cy="48.81" r=".56"/><rect class="cls-3" x="8.62" y="69.94" width="30.49" height="7.01" rx=".93" ry=".93"/><rect class="cls-5" x="40.89" y="69.94" width="30.49" height="7.01" rx=".93" ry=".93"/><path class="cls-2" d="M51.06,69.94s1.18,3.17,6.54,3.17l-4-3.17h-2.53Z"/><path class="cls-5" d="M59.5,72.45l.65-.73c.04-.07.07-.13.1-.21l-7.79-5.68-.88,1.37c-.08.13-.13.28-.13.43,0,0,0,0,0,0,.01,1.19.99,2.77,2.6,3.98,2.14,1.61,4.57,1.98,5.44.82Z"/><path class="cls-1" d="M51.66,68.67s0-1.3.62-1.27l.09-1.44-.79,1.25s-.35.32.08,1.46Z"/><path class="cls-1" d="M60.42,71.27c.51-1.21-.52-3.21-2.47-4.69-2.14-1.61-4.57-1.98-5.44-.82-.17.22-.26.48-.3.77,0,.08-.01.16-.01.25.01,1.19.99,2.77,2.6,3.98,2.14,1.61,4.57,1.98,5.44.82.03-.04.05-.07.07-.11.04-.07.07-.13.1-.21Z"/><path class="cls-5" d="M56.37,42.64c2.49.53,4.15,2.65,3.7,4.72l-.26,1.23c-.44,2.08-2.82,3.33-5.31,2.8s-4.15-2.65-3.7-4.72l.26-1.23c.44-2.08,2.82-3.33,5.31-2.8Z"/><ellipse class="cls-3" cx="55.3" cy="47.63" rx="3.84" ry="4.61" transform="translate(-2.84 91.75) rotate(-77.93)"/><path class="cls-1" d="M54.79,42.54s-.74.41-.99,1.35c0,0-.84.23-1.14.42,0,0,0-.6.26-1.23,0,0,.85-.48,1.86-.54Z"/><path class="cls-5" d="M60.48,56.89l-.31-.93c-.04-.07-.08-.13-.13-.19l-8.83,3.88.75,1.45c.07.14.18.26.31.33,0,0,0,0,0,0,1.04.59,2.89.54,4.76-.25,2.47-1.04,4.01-2.96,3.45-4.29Z"/><path class="cls-1" d="M59.92,55.5c-.79-1.05-3.04-1.17-5.3-.22-2.47,1.04-4.01,2.96-3.45,4.29.11.26.28.47.52.64.07.05.14.09.21.14,1.04.59,2.89.54,4.76-.25,2.47-1.04,4.01-2.96,3.45-4.29-.02-.04-.04-.08-.06-.12-.04-.07-.08-.13-.13-.19Z"/></svg>